# xmcd
#
# Track frame offsets: 
#        182
#        10542
#        19935
#        29725
#        40095
#        47500
#        55907
#        65552
#        76142
#        85347
#        95295
#        103297
#        112252
#        122405
#        131065
#        141010
#        151245
#        161135
#        170430
#        179415
#        188912
#        198632
#        207415
#        217970
#        229367
#
# Disc length: 3182 seconds
#
# Revision: 0
# Processed by: cddbd v1.5.2PL0 Copyright (c) Steve Scherf et al.
# Submitted via: ExactAudioCopy v0.99pb4
#
DISCID=630c6c19
DTITLE=Huelyn Duvall - Three Month To Kill
DYEAR=2000
DGENRE=Oldies
TTITLE0=Three Month To Kill (unissued altern.)
TTITLE1=It's No Wonder (unissued altern.)
TTITLE2=Humdinger
TTITLE3=Modern Romance
TTITLE4=Life Begins At 4 O' Clock (unissued alter.)
TTITLE5=So Help Me Gal
TTITLE6=Let's Make A Block
TTITLE7=Lonely (with Danny Wolfe)
TTITLE8=Rockin' Fun (Instrum.)
TTITLE9=Double Talkin' Baby (Take 2)
TTITLE10=Com'n Or Goin'
TTITLE11=Juliet (unissued altern.)
TTITLE12=Whole Lotta Shakin' Goin On
TTITLE13=Teen Queen
TTITLE14=Blue Eyed Sally
TTITLE15=Just Me And You Baby
TTITLE16=Pickin' Over You (Unissued)
TTITLE17=It's No Wonder (unissued altern.)
TTITLE18=Susie's House
TTITLE19=My Girl
TTITLE20=Blue Lotta Blue
TTITLE21=Got A Little Girl (Take 2)
TTITLE22=Friday Night On A Dollar Bill
TTITLE23=Rockin' And Warmin' Up
TTITLE24=When The Party Is Over
EXTD=
EXTT0=
EXTT1=
EXTT2=
EXTT3=
EXTT4=
EXTT5=
EXTT6=
EXTT7=
EXTT8=
EXTT9=
EXTT10=
EXTT11=
EXTT12=
EXTT13=
EXTT14=
EXTT15=
EXTT16=
EXTT17=
EXTT18=
EXTT19=
EXTT20=
EXTT21=
EXTT22=
EXTT23=
EXTT24=
PLAYORDER=
